<?xml version="1.0" encoding="UTF-8" standalone="no"?>
<svg
   viewBox="0 0 262144 262144"
   version="1.1"
   id="svg804"
   width="262144"
   height="262144"
   xmlns="http://www.w3.org/2000/svg"
   xmlns:svg="http://www.w3.org/2000/svg">
  <defs
     id="defs808" />
  <g
     class=""
     style="fill:#ffffff"
     id="g802">
    <path
       d="M 74.5,36 A 38.5,38.5 0 0 0 36,74.5 v 363 A 38.5,38.5 0 0 0 74.5,476 h 363 A 38.5,38.5 0 0 0 476,437.5 V 74.5 A 38.5,38.5 0 0 0 437.5,36 Z m 48.97,36.03 A 50,50 0 0 1 172,122 50,50 0 0 1 72,122 50,50 0 0 1 123.47,72.03 Z m 268,0 A 50,50 0 0 1 440,122 50,50 0 0 1 340,122 50,50 0 0 1 391.47,72.03 Z M 122,206 a 50,50 0 0 1 0,100 50,50 0 0 1 0,-100 z m 268,0 a 50,50 0 0 1 0,100 50,50 0 0 1 0,-100 z M 123.47,340.03 A 50,50 0 0 1 172,390 50,50 0 0 1 72,390 50,50 0 0 1 123.47,340.03 Z m 268,0 A 50,50 0 0 1 440,390 a 50,50 0 0 1 -100,0 50,50 0 0 1 51.47,-49.97 z"
       fill="#fff"
       fill-opacity="1"
       id="path800"
       style="fill:#000000" />
  </g>
  <ellipse
     style="fill:#000000;"
     id="path400"
     cx="389.6427"
     cy="123.54524"
     rx="52.508579"
     ry="51.250599" />
  <ellipse
     style="fill:#000000;"
     id="path400-9"
     cx="389.04874"
     cy="255.40602"
     rx="52.508579"
     ry="51.250599" />
  <ellipse
     style="fill:#000000;"
     id="path400-4"
     cx="390.23666"
     cy="389.6427"
     rx="52.508579"
     ry="51.250599" />
  <ellipse
     style="fill:#000000;"
     id="path400-1"
     cx="120.5754"
     cy="389.04874"
     rx="52.508579"
     ry="51.250599" />
  <ellipse
     style="fill:#000000;"
     id="path400-91"
     cx="122.95127"
     cy="254.21811"
     rx="52.508579"
     ry="51.250599" />
  <ellipse
     style="fill:#000000;"
     id="path400-13"
     cx="122.95127"
     cy="122.35732"
     rx="52.508579"
     ry="51.250599" />
</svg>
