<?xml version="1.0" encoding="UTF-8"?><svg id="Layer_1" xmlns="http://www.w3.org/2000/svg" viewBox="0 0 103.12 604.35"><defs><style>.cls-1{fill:#fff;stroke-width:3px;}.cls-1,.cls-2{stroke:#1d1d1b;stroke-miterlimit:10;}</style></defs><rect class="cls-1" x="1.5" y="1.5" width="100" height="100" rx="5.85" ry="5.85"/><circle class="cls-2" cx="51.5" cy="51.5" r="10"/><rect class="cls-1" x="1.5" y="101.5" width="100" height="100" rx="5.85" ry="5.85"/><rect class="cls-1" x="1.5" y="201.5" width="100" height="100" rx="5.85" ry="5.85"/><rect class="cls-1" x="1.5" y="301.5" width="100" height="100" rx="5.85" ry="5.85"/><circle class="cls-2" cx="24.25" cy="127.82" r="10.1"/><circle class="cls-2" cx="80.6" cy="174.65" r="10"/><circle class="cls-2" cx="24.25" cy="224.54" r="10"/><circle class="cls-2" cx="51.5" cy="251.5" r="10"/><circle class="cls-2" cx="80.6" cy="275.61" r="10"/><circle class="cls-2" cx="24.25" cy="328.35" r="10"/><circle class="cls-2" cx="80.72" cy="327" r="10"/><circle class="cls-2" cx="24.25" cy="381.85" r="10"/><circle class="cls-2" cx="80.6" cy="381.85" r="10"/><rect class="cls-1" x="1.5" y="401.5" width="100" height="100" rx="5.85" ry="5.85"/><circle class="cls-2" cx="24.25" cy="428.35" r="10"/><circle class="cls-2" cx="80.6" cy="428.35" r="10"/><circle class="cls-2" cx="24.25" cy="481.85" r="10"/><circle class="cls-2" cx="80.6" cy="481.85" r="10"/><circle class="cls-2" cx="51.5" cy="454.63" r="10"/><rect class="cls-1" x="1.62" y="502.85" width="100" height="100" rx="5.85" ry="5.85"/><circle class="cls-2" cx="24.37" cy="529.7" r="10"/><circle class="cls-2" cx="80.72" cy="529.7" r="10"/><circle class="cls-2" cx="24.37" cy="583.2" r="10"/><circle class="cls-2" cx="80.72" cy="583.2" r="10"/><circle class="cls-2" cx="24.25" cy="555.98" r="10"/><circle class="cls-2" cx="80.72" cy="555.98" r="10"/></svg>