<?xml version="1.0" encoding="UTF-8" standalone="no"?>
<svg
   viewBox="0 0 406374.81 574730.06"
   version="1.1"
   id="svg73"
   width="406374.81"
   height="574730.06"
   xmlns="http://www.w3.org/2000/svg"
   xmlns:svg="http://www.w3.org/2000/svg">
  <defs
     id="defs77" />
  <g
     class=""
     style="fill:#ffffff"
     id="g71">
    <path
       d="M 74.5,36 A 38.5,38.5 0 0 0 36,74.5 v 363 A 38.5,38.5 0 0 0 74.5,476 h 363 A 38.5,38.5 0 0 0 476,437.5 V 74.5 A 38.5,38.5 0 0 0 437.5,36 Z M 391.47,72.03 A 50,50 0 0 1 440,122 50,50 0 0 1 340,122 50,50 0 0 1 391.47,72.03 Z m -268,268 A 50,50 0 0 1 172,390 50,50 0 0 1 72,390 50,50 0 0 1 123.47,340.03 Z"
       fill="#fff"
       fill-opacity="1"
       id="path69"
       style="fill:#000000" />
  </g>
  <ellipse
     style="fill:#000000;"
     id="path400"
     cx="122.33907"
     cy="389.66095"
     rx="52.508579"
     ry="51.250599" />
  <ellipse
     style="fill:#000000;"
     id="path400-5"
     cx="388.71744"
     cy="122.02457"
     rx="52.508579"
     ry="51.250599" />
</svg>
