<?xml version="1.0" encoding="UTF-8" standalone="no"?>
<svg
   viewBox="0 0 262144 262144"
   version="1.1"
   id="svg998"
   sodipodi:docname="dice-six-faces-four.svg"
   width="262144"
   height="262144"
   xmlns:inkscape="http://www.inkscape.org/namespaces/inkscape"
   xmlns:sodipodi="http://sodipodi.sourceforge.net/DTD/sodipodi-0.dtd"
   xmlns="http://www.w3.org/2000/svg"
   xmlns:svg="http://www.w3.org/2000/svg">
  <defs
     id="defs1002" />
  <sodipodi:namedview
     id="namedview1000"
     pagecolor="#ffffff"
     bordercolor="#000000"
     borderopacity="0.25"
     inkscape:showpageshadow="2"
     inkscape:pageopacity="0.0"
     inkscape:pagecheckerboard="0"
     inkscape:deskcolor="#d1d1d1"
     showgrid="false" />
  <g
     class=""
     style="fill:#000000"
     id="g996">
    <path
       d="M 74.5,36 A 38.5,38.5 0 0 0 36,74.5 v 363 A 38.5,38.5 0 0 0 74.5,476 h 363 A 38.5,38.5 0 0 0 476,437.5 V 74.5 A 38.5,38.5 0 0 0 437.5,36 Z m 48.97,36.03 A 50,50 0 0 1 172,122 50,50 0 0 1 72,122 50,50 0 0 1 123.47,72.03 Z m 268,0 A 50,50 0 0 1 440,122 50,50 0 0 1 340,122 50,50 0 0 1 391.47,72.03 Z m -268,268 A 50,50 0 0 1 172,390 50,50 0 0 1 72,390 50,50 0 0 1 123.47,340.03 Z m 268,0 A 50,50 0 0 1 440,390 a 50,50 0 0 1 -100,0 50,50 0 0 1 51.47,-49.97 z"
       fill="#fff"
       fill-opacity="1"
       id="path994"
       style="fill:#ffffff" />
  </g>
  <ellipse
     style="fill:#000000;"
     id="path400"
     cx="121.16938"
     cy="390.83063"
     rx="52.508579"
     ry="51.250599" />
  <ellipse
     style="fill:#000000;"
     id="path400-9"
     cx="389.04874"
     cy="389.04874"
     rx="52.508579"
     ry="51.250599" />
  <ellipse
     style="fill:#000000;"
     id="path400-0"
     cx="123.54523"
     cy="121.76334"
     rx="52.508579"
     ry="51.250599" />
  <ellipse
     style="fill:#000000;"
     id="path400-8"
     cx="390.23666"
     cy="119.98143"
     rx="52.508579"
     ry="51.250599" />
</svg>
