<?xml version="1.0" encoding="UTF-8" standalone="no"?>
<svg
   id="Layer_1"
   viewBox="0 0 81846.428 678394.78"
   version="1.1"
   width="81846.43"
   height="678394.75"
   xmlns="http://www.w3.org/2000/svg"
   xmlns:svg="http://www.w3.org/2000/svg">
  <defs
     id="defs122">
    <style
       id="style120">.cls-1{fill:#fff;stroke-width:3px;}.cls-1,.cls-2{stroke:#1d1d1b;stroke-miterlimit:10;}</style>
  </defs>
  <rect
     class="cls-1"
     x="2.9848895"
     y="2.9848895"
     width="100"
     height="100"
     rx="5.8499999"
     ry="5.8499999"
     id="rect124" />
  <circle
     class="cls-2"
     cx="52.98489"
     cy="52.98489"
     r="10"
     id="circle126" />
  <rect
     class="cls-1"
     x="2.9848895"
     y="102.98489"
     width="100"
     height="100"
     rx="5.8499999"
     ry="5.8499999"
     id="rect128" />
  <rect
     class="cls-1"
     x="2.9848895"
     y="202.98489"
     width="100"
     height="100"
     rx="5.8499999"
     ry="5.8499999"
     id="rect130" />
  <rect
     class="cls-1"
     x="2.9848895"
     y="302.98489"
     width="100"
     height="100"
     rx="5.8499999"
     ry="5.8499999"
     id="rect132" />
  <circle
     class="cls-2"
     cx="25.73489"
     cy="129.30489"
     r="10.1"
     id="circle134" />
  <circle
     class="cls-2"
     cx="82.084885"
     cy="176.13489"
     r="10"
     id="circle136" />
  <circle
     class="cls-2"
     cx="25.73489"
     cy="226.02489"
     r="10"
     id="circle138" />
  <circle
     class="cls-2"
     cx="52.98489"
     cy="252.98489"
     r="10"
     id="circle140" />
  <circle
     class="cls-2"
     cx="82.084885"
     cy="277.09488"
     r="10"
     id="circle142" />
  <circle
     class="cls-2"
     cx="25.73489"
     cy="329.8349"
     r="10"
     id="circle144" />
  <circle
     class="cls-2"
     cx="82.204887"
     cy="328.48489"
     r="10"
     id="circle146" />
  <circle
     class="cls-2"
     cx="25.73489"
     cy="383.3349"
     r="10"
     id="circle148" />
  <circle
     class="cls-2"
     cx="82.084885"
     cy="383.3349"
     r="10"
     id="circle150" />
  <rect
     class="cls-1"
     x="2.9848895"
     y="402.98489"
     width="100"
     height="100"
     rx="5.8499999"
     ry="5.8499999"
     id="rect152" />
  <circle
     class="cls-2"
     cx="25.73489"
     cy="429.8349"
     r="10"
     id="circle154" />
  <circle
     class="cls-2"
     cx="82.084885"
     cy="429.8349"
     r="10"
     id="circle156" />
  <circle
     class="cls-2"
     cx="25.73489"
     cy="483.3349"
     r="10"
     id="circle158" />
  <circle
     class="cls-2"
     cx="82.084885"
     cy="483.3349"
     r="10"
     id="circle160" />
  <circle
     class="cls-2"
     cx="52.98489"
     cy="456.1149"
     r="10"
     id="circle162" />
  <rect
     class="cls-1"
     x="3.1048894"
     y="504.3349"
     width="100"
     height="100"
     rx="5.8499999"
     ry="5.8499999"
     id="rect164" />
  <circle
     class="cls-2"
     cx="25.854891"
     cy="531.18488"
     r="10"
     id="circle166" />
  <circle
     class="cls-2"
     cx="82.204887"
     cy="531.18488"
     r="10"
     id="circle168" />
  <circle
     class="cls-2"
     cx="25.854891"
     cy="584.68488"
     r="10"
     id="circle170" />
  <circle
     class="cls-2"
     cx="82.204887"
     cy="584.68488"
     r="10"
     id="circle172" />
  <circle
     class="cls-2"
     cx="25.73489"
     cy="557.46484"
     r="10"
     id="circle174" />
  <circle
     class="cls-2"
     cx="82.204887"
     cy="557.46484"
     r="10"
     id="circle176" />
</svg>
